<svg width="967" height="116" viewBox="0 0 967 116" fill="none" xmlns="http://www.w3.org/2000/svg">
<path d="M873.833 92V66.35L915.383 0.349991L934.433 12.8L898.883 69.35L900.983 72.5H966.533V92H873.833ZM931.283 113V34.1H953.933V113H931.283Z" fill="white"/>
<path d="M786.107 113V90.5C786.107 85.8 786.857 81.7 788.357 78.2C789.957 74.7 792.457 71.6 795.857 68.9C799.257 66.1 803.757 63.5 809.357 61.1L827.057 53.45C831.557 51.55 834.857 49.2 836.957 46.4C839.157 43.6 840.257 40.05 840.257 35.75C840.257 31.35 838.907 27.75 836.207 24.95C833.507 22.15 829.557 20.75 824.357 20.75C819.157 20.75 815.207 22.2 812.507 25.1C809.807 28 808.457 31.9 808.457 36.8H784.607C784.607 29.9 786.107 23.7 789.107 18.2C792.107 12.6 796.557 8.2 802.457 5C808.357 1.8 815.657 0.199997 824.357 0.199997C833.057 0.199997 840.307 1.75 846.107 4.85C852.007 7.95 856.457 12.1 859.457 17.3C862.557 22.5 864.107 28.35 864.107 34.85V36.65C864.107 45.05 861.807 52 857.207 57.5C852.607 62.9 845.507 67.7 835.907 71.9L818.357 79.55C815.357 80.85 813.207 82.2 811.907 83.6C810.707 85 810.107 86.9 810.107 89.3V96.8L804.257 91.85H864.257V113H786.107Z" fill="white"/>
<path d="M723.003 115.85C714.303 115.85 706.853 114.45 700.653 111.65C694.453 108.75 689.403 104.85 685.503 99.95C681.703 95.05 678.853 89.4 676.953 83C675.153 76.5 674.253 69.65 674.253 62.45V53.9C674.253 43.9 676.003 34.85 679.503 26.75C683.003 18.65 688.353 12.2 695.553 7.39999C702.753 2.6 711.903 0.199997 723.003 0.199997C734.103 0.199997 743.203 2.6 750.303 7.39999C757.503 12.2 762.853 18.65 766.353 26.75C769.853 34.85 771.603 43.9 771.603 53.9V62.45C771.603 69.65 770.653 76.5 768.753 83C766.953 89.4 764.103 95.05 760.203 99.95C756.403 104.85 751.403 108.75 745.203 111.65C739.103 114.45 731.703 115.85 723.003 115.85ZM723.003 93.2C731.103 93.2 737.103 90.4 741.003 84.8C745.003 79.1 747.003 70.3 747.003 58.4C747.003 45.8 744.953 36.75 740.853 31.25C736.853 25.65 730.903 22.85 723.003 22.85C714.903 22.85 708.853 25.65 704.853 31.25C700.853 36.75 698.853 45.7 698.853 58.1C698.853 70.1 700.803 78.95 704.703 84.65C708.703 90.35 714.803 93.2 723.003 93.2Z" fill="white"/>
<path d="M582.928 113V90.5C582.928 85.8 583.678 81.7 585.178 78.2C586.778 74.7 589.278 71.6 592.678 68.9C596.078 66.1 600.578 63.5 606.178 61.1L623.878 53.45C628.378 51.55 631.678 49.2 633.778 46.4C635.978 43.6 637.078 40.05 637.078 35.75C637.078 31.35 635.728 27.75 633.028 24.95C630.328 22.15 626.378 20.75 621.178 20.75C615.978 20.75 612.028 22.2 609.328 25.1C606.628 28 605.278 31.9 605.278 36.8H581.428C581.428 29.9 582.928 23.7 585.928 18.2C588.928 12.6 593.378 8.2 599.278 5C605.178 1.8 612.478 0.199997 621.178 0.199997C629.878 0.199997 637.128 1.75 642.928 4.85C648.828 7.95 653.278 12.1 656.278 17.3C659.378 22.5 660.928 28.35 660.928 34.85V36.65C660.928 45.05 658.628 52 654.028 57.5C649.428 62.9 642.328 67.7 632.728 71.9L615.178 79.55C612.178 80.85 610.028 82.2 608.728 83.6C607.528 85 606.928 86.9 606.928 89.3V96.8L601.078 91.85H661.078V113H582.928Z" fill="white"/>
<path d="M491.013 115.85C481.113 115.85 472.613 114.15 465.513 110.75C458.413 107.25 452.613 102.7 448.113 97.1C443.613 91.4 440.263 85.3 438.063 78.8C435.963 72.2 434.913 65.8 434.913 59.6V56.3C434.913 49.5 436.013 42.8 438.213 36.2C440.413 29.5 443.763 23.45 448.263 18.05C452.863 12.65 458.613 8.35 465.513 5.15C472.513 1.85 480.763 0.199997 490.263 0.199997C500.163 0.199997 508.913 2.05 516.513 5.75C524.113 9.45 530.163 14.6 534.663 21.2C539.263 27.7 541.963 35.35 542.763 44.15H518.013C517.313 39.75 515.713 36 513.213 32.9C510.713 29.8 507.463 27.4 503.463 25.7C499.563 24 495.163 23.15 490.263 23.15C485.363 23.15 481.013 24 477.213 25.7C473.413 27.4 470.213 29.8 467.613 32.9C465.113 36 463.163 39.7 461.763 44C460.463 48.2 459.813 52.9 459.813 58.1C459.813 63.2 460.463 67.9 461.763 72.2C463.163 76.4 465.163 80.1 467.763 83.3C470.463 86.4 473.763 88.8 477.663 90.5C481.563 92.1 486.013 92.9 491.013 92.9C498.613 92.9 505.013 91.05 510.213 87.35C515.513 83.65 518.713 78.55 519.813 72.05H544.413C543.513 80.05 540.813 87.4 536.313 94.1C531.913 100.7 525.863 106 518.163 110C510.563 113.9 501.513 115.85 491.013 115.85Z" fill="white"/>
<path d="M348.175 113.6V90.65H368.575C373.675 90.65 378.275 89.9 382.375 88.4C386.475 86.8 389.975 84.6 392.875 81.8C395.775 78.9 397.975 75.45 399.475 71.45C400.975 67.35 401.725 62.85 401.725 57.95C401.725 52.85 400.975 48.3 399.475 44.3C397.975 40.3 395.775 36.9 392.875 34.1C389.975 31.3 386.475 29.2 382.375 27.8C378.275 26.3 373.675 25.55 368.575 25.55H348.175V2.59999H367.225C377.125 2.59999 385.775 4.04999 393.175 6.95C400.575 9.85 406.775 13.8 411.775 18.8C416.775 23.8 420.475 29.55 422.875 36.05C425.375 42.45 426.625 49.2 426.625 56.3V59.6C426.625 66.2 425.375 72.75 422.875 79.25C420.475 85.65 416.775 91.45 411.775 96.65C406.775 101.75 400.575 105.85 393.175 108.95C385.775 112.05 377.125 113.6 367.225 113.6H348.175ZM326.575 113.6V2.59999H351.175V113.6H326.575Z" fill="white"/>
<path d="M267.626 115.85C257.726 115.85 249.376 114.3 242.576 111.2C235.776 108 230.626 103.7 227.126 98.3C223.626 92.8 221.876 86.5 221.876 79.4H245.726C245.726 82.2 246.476 84.8 247.976 87.2C249.576 89.6 251.976 91.55 255.176 93.05C258.376 94.45 262.526 95.15 267.626 95.15C272.226 95.15 276.076 94.55 279.176 93.35C282.276 92.15 284.626 90.5 286.226 88.4C287.826 86.2 288.626 83.7 288.626 80.9C288.626 77.4 287.126 74.65 284.126 72.65C281.126 70.55 276.276 69.2 269.576 68.6L261.326 67.85C250.426 66.95 241.726 63.55 235.226 57.65C228.726 51.75 225.476 43.95 225.476 34.25C225.476 27.25 227.126 21.2 230.426 16.1C233.826 11 238.526 7.1 244.526 4.4C250.526 1.6 257.626 0.199997 265.826 0.199997C274.426 0.199997 281.776 1.7 287.876 4.69999C294.076 7.6 298.826 11.75 302.126 17.15C305.426 22.45 307.076 28.7 307.076 35.9H283.076C283.076 33.2 282.426 30.75 281.126 28.55C279.826 26.25 277.876 24.4 275.276 23C272.776 21.6 269.626 20.9 265.826 20.9C262.226 20.9 259.176 21.5 256.676 22.7C254.276 23.9 252.476 25.55 251.276 27.65C250.076 29.65 249.476 31.85 249.476 34.25C249.476 37.35 250.576 40.05 252.776 42.35C254.976 44.65 258.576 46 263.576 46.4L271.976 47.15C279.976 47.85 287.026 49.6 293.126 52.4C299.226 55.1 303.976 58.85 307.376 63.65C310.876 68.35 312.626 74.1 312.626 80.9C312.626 87.9 310.776 94.05 307.076 99.35C303.476 104.55 298.326 108.6 291.626 111.5C284.926 114.4 276.926 115.85 267.626 115.85Z" fill="white"/>
<path d="M130.981 115.85C121.181 115.85 112.631 114.25 105.331 111.05C98.0312 107.75 91.9812 103.35 87.1812 97.85C82.4812 92.35 78.9812 86.25 76.6812 79.55C74.3812 72.85 73.2312 66.15 73.2312 59.45V56.15C73.2312 49.25 74.3812 42.5 76.6812 35.9C78.9812 29.3 82.4312 23.3 87.0312 17.9C91.7312 12.5 97.5312 8.2 104.431 5C111.431 1.8 119.481 0.199997 128.581 0.199997C138.481 0.199997 147.231 2.05 154.831 5.75C162.431 9.35 168.531 14.4 173.131 20.9C177.731 27.3 180.381 34.75 181.081 43.25H156.481C155.881 39.25 154.281 35.75 151.681 32.75C149.181 29.75 145.931 27.4 141.931 25.7C138.031 24 133.581 23.15 128.581 23.15C123.781 23.15 119.481 24 115.681 25.7C111.981 27.4 108.781 29.8 106.081 32.9C103.481 36 101.481 39.7 100.081 44C98.7812 48.2 98.1312 52.85 98.1312 57.95C98.1312 63.25 98.8312 68.1 100.231 72.5C101.731 76.8 103.881 80.55 106.681 83.75C109.481 86.85 112.931 89.25 117.031 90.95C121.231 92.65 125.881 93.5 130.981 93.5C137.781 93.5 143.681 92.1 148.681 89.3C153.681 86.5 157.281 82.8 159.481 78.2L156.481 95V68.9H179.131V92.3C174.431 99.9 167.931 105.75 159.631 109.85C151.431 113.85 141.881 115.85 130.981 115.85ZM127.831 73.7V56H188.131V73.7H127.831Z" fill="white"/>
<path d="M0.635986 113V3.5H25.236V113H0.635986ZM22.236 113V91.4H68.136V113H22.236Z" fill="white"/>
</svg>
