<svg width="1917" height="89" viewBox="0 0 1917 89" fill="none" xmlns="http://www.w3.org/2000/svg">
<mask id="path-1-inside-1_39_240" fill="white">
<path fill-rule="evenodd" clip-rule="evenodd" d="M118.984 30.0469C117.461 23.9531 112.363 20.4375 104.922 20.4375C93.0859 20.4375 86.1719 29.2852 86.1719 44.4609C86.1719 59.6953 92.6172 68.6602 104.805 68.7188C115.352 68.6602 120.859 63.6797 120.977 55.8281H105.273V39.8906H142.539V51.4922C142.539 74.5781 126.719 88.1719 104.57 88.1719C79.9609 88.1719 63.2617 71.5898 63.2031 44.6953C63.2617 16.8047 81.6016 0.984375 104.453 0.984375C124.375 0.984375 139.727 13.0547 141.602 30.0469H118.984ZM213.672 19.3828C221.289 19.3242 225.039 22.7227 225.508 28.4062H246.953C246.836 11.9414 234.004 0.984375 213.672 0.984375C193.75 0.984375 179.57 11.7656 179.688 27.8203C179.629 40.9453 188.77 48.3281 203.711 51.6094L212.266 53.4844C221.699 55.5352 225.215 57.9375 225.273 62.0391C225.215 66.5508 221.113 69.6562 213.438 69.6562C204.59 69.6562 199.141 65.4961 198.789 57.5859H177.461C177.637 78.5039 191.875 87.9961 213.789 88.0547C235.234 87.9961 248.008 78.6797 248.125 62.0391C248.008 48.9727 239.863 40.125 221.641 36.2578L214.609 34.6172C206.699 32.9766 202.715 30.5742 202.891 26.1797C202.949 22.2539 206.348 19.3242 213.672 19.3828ZM338.828 44.5781C338.828 72.8203 320.723 88.1719 297.812 88.1719C274.668 88.1719 256.738 72.6445 256.68 44.5781C256.738 16.3359 274.668 0.984375 297.812 0.984375C320.723 0.984375 338.828 16.3359 338.828 44.5781ZM279.648 44.5781C279.648 60.1641 286.094 68.6602 297.812 68.7188C309.414 68.6602 315.918 60.1641 315.859 44.5781C315.918 28.9336 309.414 20.4375 297.812 20.4375C286.094 20.4375 279.648 28.9336 279.648 44.5781ZM1348.75 44.5781C1348.75 72.8203 1330.64 88.1719 1307.73 88.1719C1284.59 88.1719 1266.66 72.6445 1266.6 44.5781C1266.66 16.3359 1284.59 0.984375 1307.73 0.984375C1330.64 0.984375 1348.75 16.3359 1348.75 44.5781ZM1289.57 44.5781C1289.57 60.1641 1296.02 68.6602 1307.73 68.7188C1319.34 68.6602 1325.84 60.1641 1325.78 44.5781C1325.84 28.9336 1319.34 20.4375 1307.73 20.4375C1296.02 20.4375 1289.57 28.9336 1289.57 44.5781ZM1611.95 87V70.9453L1643.48 44.4609C1649.92 39.0117 1653.85 35.0273 1653.91 28.875C1653.85 22.2539 1649.16 18.2109 1642.66 18.2109C1636.09 18.2109 1631.58 22.3711 1631.64 29.5781H1610.43C1610.37 11.8828 1623.14 0.984375 1642.66 0.984375C1662.75 0.984375 1675.59 11.3555 1675.59 27C1675.59 36.8438 1670.72 45.1055 1651.56 61.2188L1643.01 68.6016V69.0703H1676.52V87H1611.95ZM1686.48 44.5781C1686.54 72.4102 1700.66 88.1719 1723.52 88.1719C1746.37 88.1719 1760.55 72.5273 1760.55 44.5781C1760.55 16.8047 1746.37 0.984375 1723.52 0.984375C1700.66 0.984375 1686.54 16.6875 1686.48 44.5781ZM1723.52 70.2422C1715.31 70.1836 1709.51 62.5664 1709.57 44.5781C1709.69 26.9414 1715.31 18.9727 1723.52 18.9141C1731.72 18.9727 1737.4 26.9414 1737.46 44.5781C1737.52 62.5664 1731.72 70.1836 1723.52 70.2422ZM1771.45 87V70.9453L1802.97 44.4609C1809.41 39.0117 1813.34 35.0273 1813.4 28.875C1813.34 22.2539 1808.65 18.2109 1802.15 18.2109C1795.59 18.2109 1791.07 22.3711 1791.13 29.5781H1769.92C1769.86 11.8828 1782.64 0.984375 1802.15 0.984375C1822.25 0.984375 1835.08 11.3555 1835.08 27C1835.08 36.8438 1830.22 45.1055 1811.05 61.2188L1802.5 68.6016V69.0703H1836.02V87H1771.45ZM1843.87 73.5234V56.1797L1878.2 2.15625H1906.45V56.0625H1916.29V73.5234H1906.45V87H1885.12V73.5234H1843.87ZM1865.9 56.0625H1885.59V25.3594H1884.88L1865.9 55.4766V56.0625ZM1508.24 2.15625V87H1530.51V58.7578H1539.24L1554.3 87H1578.55L1561.21 55.1836C1570.35 50.8477 1575.74 42.5859 1575.74 30.8672C1575.74 12.9375 1563.32 2.15625 1544.34 2.15625H1508.24ZM1539.18 41.2969H1530.51V19.9688H1539.18C1547.56 20.0273 1552.48 23.3672 1552.42 30.8672C1552.48 38.25 1547.56 41.2969 1539.18 41.2969ZM1435.94 87V2.15625H1496.52V20.2031H1458.2V35.5547H1493.36V53.6016H1458.2V68.9531H1496.41V87H1435.94ZM1359.65 2.15625V87H1381.91V61.4531H1395.04C1414.38 61.5117 1427.15 50.0859 1427.15 31.9219C1427.15 14.0508 1414.73 2.15625 1395.74 2.15625H1359.65ZM1390.59 44.1094H1381.91V19.9688H1390.59C1398.96 20.0273 1403.89 24.5391 1403.83 31.9219C1403.89 39.3633 1398.96 44.0508 1390.59 44.1094ZM1204.14 2.15625V87H1260.98V68.9531H1226.41V2.15625H1204.14ZM1131.84 87V2.15625H1192.42V20.2031H1154.1V35.5547H1189.26V53.6016H1154.1V68.9531H1192.3V87H1131.84ZM1079.69 62.625L1061.88 2.15625H1036.68L1064.92 87H1095.27L1123.4 2.15625H1098.2L1080.39 62.625H1079.69ZM967.539 87V2.15625H1028.12V20.2031H989.805V35.5547H1024.96V53.6016H989.805V68.9531H1028.01V87H967.539ZM882.227 87H914.453C940.352 87 956.641 71.0625 956.641 44.5781C956.641 18.0352 940.352 2.15625 914.219 2.15625H882.227V87ZM913.633 68.0156H904.492V21.1406H913.047C926.699 21.1406 934.141 26.6484 934.141 44.5781C934.141 62.4492 926.699 68.0156 913.633 68.0156ZM783.789 87V2.15625H844.375V20.2031H806.055V35.5547H841.211V53.6016H806.055V68.9531H844.258V87H783.789ZM706.211 2.15625V87H728.477V58.7578H737.207L752.266 87H776.523L759.18 55.1836C768.32 50.8477 773.711 42.5859 773.711 30.8672C773.711 12.9375 761.289 2.15625 742.305 2.15625H706.211ZM737.148 41.2969H728.477V19.9688H737.148C745.527 20.0273 750.449 23.3672 750.391 30.8672C750.449 38.25 745.527 41.2969 737.148 41.2969ZM635.195 87H611.055L639.297 2.15625H669.648L697.773 87H673.75L668.652 70.3594H640.234L635.195 87ZM645.391 53.4844H663.496L654.766 25.0078H654.062L645.391 53.4844ZM493.75 2.15625L518.711 87H540.039L554.688 38.4844H555.391L570.039 87H591.484L616.445 2.15625H591.602L579.648 55.4766H578.945L564.883 2.15625H545.195L531.25 55.2422H530.547L518.594 2.15625H493.75ZM415.352 20.2031V2.15625H488.477V20.2031H462.93V87H440.898V20.2031H415.352ZM349.727 2.15625V87H371.992V53.6016H405.156V35.5547H371.992V20.2031H408.906V2.15625H349.727ZM0.742188 2.15625V87H57.5781V68.9531H23.0078V2.15625H0.742188Z"/>
</mask>
<path d="M118.984 30.0469L118.014 30.2894L118.204 31.0469H118.984V30.0469ZM104.805 68.7188L104.8 69.7188L104.81 69.7187L104.805 68.7188ZM120.977 55.8281L121.976 55.843L121.992 54.8281H120.977V55.8281ZM105.273 55.8281H104.273V56.8281H105.273V55.8281ZM105.273 39.8906V38.8906H104.273V39.8906H105.273ZM142.539 39.8906H143.539V38.8906H142.539V39.8906ZM63.2031 44.6953L62.2031 44.6932L62.2031 44.6975L63.2031 44.6953ZM141.602 30.0469V31.0469H142.718L142.596 29.9372L141.602 30.0469ZM225.508 28.4062L224.511 28.4884L224.587 29.4062H225.508V28.4062ZM213.672 19.3828L213.664 20.3828L213.672 20.3828L213.68 20.3828L213.672 19.3828ZM246.953 28.4062V29.4062H247.96L247.953 28.3991L246.953 28.4062ZM179.688 27.8203L180.688 27.8248L180.687 27.813L179.688 27.8203ZM203.711 51.6094L203.496 52.5861L203.497 52.5862L203.711 51.6094ZM212.266 53.4844L212.052 54.4612L212.053 54.4616L212.266 53.4844ZM225.273 62.0391L226.273 62.052L226.274 62.0384L226.273 62.0248L225.273 62.0391ZM198.789 57.5859L199.788 57.5415L199.746 56.5859H198.789V57.5859ZM177.461 57.5859V56.5859H176.452L176.461 57.5943L177.461 57.5859ZM213.789 88.0547L213.786 89.0547L213.792 89.0547L213.789 88.0547ZM248.125 62.0391L249.125 62.0461L249.125 62.0381L249.125 62.0301L248.125 62.0391ZM221.641 36.2578L221.413 37.2317L221.423 37.2339L221.433 37.236L221.641 36.2578ZM214.609 34.6172L214.837 33.6433L214.825 33.6405L214.812 33.638L214.609 34.6172ZM202.891 26.1797L203.89 26.2197L203.89 26.2071L203.891 26.1946L202.891 26.1797ZM256.68 44.5781L255.68 44.5761L255.68 44.5802L256.68 44.5781ZM297.812 68.7188L297.807 69.7188L297.818 69.7187L297.812 68.7188ZM315.859 44.5781L314.859 44.5744L314.859 44.5819L315.859 44.5781ZM1266.6 44.5781L1265.6 44.5761L1265.6 44.5802L1266.6 44.5781ZM1307.73 68.7188L1307.73 69.7188L1307.74 69.7187L1307.73 68.7188ZM1325.78 44.5781L1324.78 44.5744L1324.78 44.5819L1325.78 44.5781ZM1611.95 70.9453L1611.31 70.1797L1610.95 70.4794V70.9453H1611.95ZM1611.95 87H1610.95V88H1611.95V87ZM1643.48 44.4609L1644.12 45.2266L1644.12 45.2246L1643.48 44.4609ZM1653.91 28.875L1654.91 28.8845L1654.91 28.8753L1654.91 28.8662L1653.91 28.875ZM1631.64 29.5781V30.5781H1632.65L1632.64 29.57L1631.64 29.5781ZM1610.43 29.5781L1609.43 29.5814L1609.43 30.5781H1610.43V29.5781ZM1651.56 61.2188L1650.92 60.4534L1650.91 60.4617L1651.56 61.2188ZM1643.01 68.6016L1642.35 67.8445L1642.01 68.1437V68.6016H1643.01ZM1643.01 69.0703H1642.01V70.0703H1643.01V69.0703ZM1676.52 69.0703H1677.52V68.0703H1676.52V69.0703ZM1676.52 87V88H1677.52V87H1676.52ZM1686.48 44.5781L1685.48 44.576L1685.48 44.5802L1686.48 44.5781ZM1709.57 44.5781L1708.57 44.5715L1708.57 44.5749L1709.57 44.5781ZM1723.52 70.2422L1723.51 71.2422L1723.52 71.2422L1723.52 71.2422L1723.52 70.2422ZM1723.52 18.9141L1723.52 17.9141L1723.52 17.914L1723.51 17.9141L1723.52 18.9141ZM1737.46 44.5781L1738.46 44.5749L1738.46 44.5748L1737.46 44.5781ZM1771.45 70.9453L1770.8 70.1797L1770.45 70.4794V70.9453H1771.45ZM1771.45 87H1770.45V88H1771.45V87ZM1802.97 44.4609L1803.61 45.2266L1803.61 45.2246L1802.97 44.4609ZM1813.4 28.875L1814.4 28.8845L1814.4 28.8753L1814.4 28.8662L1813.4 28.875ZM1791.13 29.5781V30.5781H1792.14L1792.13 29.57L1791.13 29.5781ZM1769.92 29.5781L1768.92 29.5814L1768.93 30.5781H1769.92V29.5781ZM1811.05 61.2188L1810.41 60.4534L1810.4 60.4617L1811.05 61.2188ZM1802.5 68.6016L1801.85 67.8445L1801.5 68.1437V68.6016H1802.5ZM1802.5 69.0703H1801.5V70.0703H1802.5V69.0703ZM1836.02 69.0703H1837.02V68.0703H1836.02V69.0703ZM1836.02 87V88H1837.02V87H1836.02ZM1843.87 56.1797L1843.02 55.6433L1842.87 55.8888V56.1797H1843.87ZM1843.87 73.5234H1842.87V74.5234H1843.87V73.5234ZM1878.2 2.15625V1.15625H1877.65L1877.36 1.61985L1878.2 2.15625ZM1906.45 2.15625H1907.45V1.15625H1906.45V2.15625ZM1906.45 56.0625H1905.45V57.0625H1906.45V56.0625ZM1916.29 56.0625H1917.29V55.0625H1916.29V56.0625ZM1916.29 73.5234V74.5234H1917.29V73.5234H1916.29ZM1906.45 73.5234V72.5234H1905.45V73.5234H1906.45ZM1906.45 87V88H1907.45V87H1906.45ZM1885.12 87H1884.12V88H1885.12V87ZM1885.12 73.5234H1886.12V72.5234H1885.12V73.5234ZM1885.59 56.0625V57.0625H1886.59V56.0625H1885.59ZM1865.9 56.0625H1864.9V57.0625H1865.9V56.0625ZM1885.59 25.3594H1886.59V24.3594H1885.59V25.3594ZM1884.88 25.3594V24.3594H1884.33L1884.04 24.8261L1884.88 25.3594ZM1865.9 55.4766L1865.05 54.9433L1864.9 55.1877V55.4766H1865.9ZM1508.24 87H1507.24V88H1508.24V87ZM1508.24 2.15625V1.15625H1507.24V2.15625H1508.24ZM1530.51 87V88H1531.51V87H1530.51ZM1530.51 58.7578V57.7578H1529.51V58.7578H1530.51ZM1539.24 58.7578L1540.12 58.2873L1539.84 57.7578H1539.24V58.7578ZM1554.3 87L1553.41 87.4705L1553.7 88H1554.3V87ZM1578.55 87V88H1580.24L1579.43 86.5214L1578.55 87ZM1561.21 55.1836L1560.78 54.2801L1559.83 54.7334L1560.33 55.6622L1561.21 55.1836ZM1530.51 41.2969H1529.51V42.2969H1530.51V41.2969ZM1530.51 19.9688V18.9688H1529.51V19.9688H1530.51ZM1539.18 19.9688L1539.19 18.9688H1539.18V19.9688ZM1552.42 30.8672L1551.42 30.8594L1551.42 30.8672L1551.42 30.8751L1552.42 30.8672ZM1435.94 2.15625V1.15625H1434.94V2.15625H1435.94ZM1435.94 87H1434.94V88H1435.94V87ZM1496.52 2.15625H1497.52V1.15625H1496.52V2.15625ZM1496.52 20.2031V21.2031H1497.52V20.2031H1496.52ZM1458.2 20.2031V19.2031H1457.2V20.2031H1458.2ZM1458.2 35.5547H1457.2V36.5547H1458.2V35.5547ZM1493.36 35.5547H1494.36V34.5547H1493.36V35.5547ZM1493.36 53.6016V54.6016H1494.36V53.6016H1493.36ZM1458.2 53.6016V52.6016H1457.2V53.6016H1458.2ZM1458.2 68.9531H1457.2V69.9531H1458.2V68.9531ZM1496.41 68.9531H1497.41V67.9531H1496.41V68.9531ZM1496.41 87V88H1497.41V87H1496.41ZM1359.65 87H1358.65V88H1359.65V87ZM1359.65 2.15625V1.15625H1358.65V2.15625H1359.65ZM1381.91 87V88H1382.91V87H1381.91ZM1381.91 61.4531V60.4531H1380.91V61.4531H1381.91ZM1395.04 61.4531L1395.04 60.4531H1395.04V61.4531ZM1381.91 44.1094H1380.91V45.1094H1381.91V44.1094ZM1390.59 44.1094V45.1094L1390.59 45.1094L1390.59 44.1094ZM1381.91 19.9688V18.9688H1380.91V19.9688H1381.91ZM1390.59 19.9688L1390.59 18.9688H1390.59V19.9688ZM1403.83 31.9219L1402.83 31.9139L1402.83 31.9218L1402.83 31.9297L1403.83 31.9219ZM1204.14 87H1203.14V88H1204.14V87ZM1204.14 2.15625V1.15625H1203.14V2.15625H1204.14ZM1260.98 87V88H1261.98V87H1260.98ZM1260.98 68.9531H1261.98V67.9531H1260.98V68.9531ZM1226.41 68.9531H1225.41V69.9531H1226.41V68.9531ZM1226.41 2.15625H1227.41V1.15625H1226.41V2.15625ZM1131.84 2.15625V1.15625H1130.84V2.15625H1131.84ZM1131.84 87H1130.84V88H1131.84V87ZM1192.42 2.15625H1193.42V1.15625H1192.42V2.15625ZM1192.42 20.2031V21.2031H1193.42V20.2031H1192.42ZM1154.1 20.2031V19.2031H1153.1V20.2031H1154.1ZM1154.1 35.5547H1153.1V36.5547H1154.1V35.5547ZM1189.26 35.5547H1190.26V34.5547H1189.26V35.5547ZM1189.26 53.6016V54.6016H1190.26V53.6016H1189.26ZM1154.1 53.6016V52.6016H1153.1V53.6016H1154.1ZM1154.1 68.9531H1153.1V69.9531H1154.1V68.9531ZM1192.3 68.9531H1193.3V67.9531H1192.3V68.9531ZM1192.3 87V88H1193.3V87H1192.3ZM1061.88 2.15625L1062.83 1.87368L1062.62 1.15625H1061.88V2.15625ZM1079.69 62.625L1078.73 62.9076L1078.94 63.625H1079.69V62.625ZM1036.68 2.15625V1.15625H1035.29L1035.73 2.47208L1036.68 2.15625ZM1064.92 87L1063.97 87.3158L1064.2 88H1064.92V87ZM1095.27 87V88H1096L1096.22 87.3147L1095.27 87ZM1123.4 2.15625L1124.35 2.4709L1124.78 1.15625H1123.4V2.15625ZM1098.2 2.15625V1.15625H1097.46L1097.24 1.87368L1098.2 2.15625ZM1080.39 62.625V63.625H1081.14L1081.35 62.9076L1080.39 62.625ZM967.539 2.15625V1.15625H966.539V2.15625H967.539ZM967.539 87H966.539V88H967.539V87ZM1028.12 2.15625H1029.12V1.15625H1028.12V2.15625ZM1028.12 20.2031V21.2031H1029.12V20.2031H1028.12ZM989.805 20.2031V19.2031H988.805V20.2031H989.805ZM989.805 35.5547H988.805V36.5547H989.805V35.5547ZM1024.96 35.5547H1025.96V34.5547H1024.96V35.5547ZM1024.96 53.6016V54.6016H1025.96V53.6016H1024.96ZM989.805 53.6016V52.6016H988.805V53.6016H989.805ZM989.805 68.9531H988.805V69.9531H989.805V68.9531ZM1028.01 68.9531H1029.01V67.9531H1028.01V68.9531ZM1028.01 87V88H1029.01V87H1028.01ZM882.227 87H881.227V88H882.227V87ZM882.227 2.15625V1.15625H881.227V2.15625H882.227ZM904.492 68.0156H903.492V69.0156H904.492V68.0156ZM904.492 21.1406V20.1406H903.492V21.1406H904.492ZM783.789 2.15625V1.15625H782.789V2.15625H783.789ZM783.789 87H782.789V88H783.789V87ZM844.375 2.15625H845.375V1.15625H844.375V2.15625ZM844.375 20.2031V21.2031H845.375V20.2031H844.375ZM806.055 20.2031V19.2031H805.055V20.2031H806.055ZM806.055 35.5547H805.055V36.5547H806.055V35.5547ZM841.211 35.5547H842.211V34.5547H841.211V35.5547ZM841.211 53.6016V54.6016H842.211V53.6016H841.211ZM806.055 53.6016V52.6016H805.055V53.6016H806.055ZM806.055 68.9531H805.055V69.9531H806.055V68.9531ZM844.258 68.9531H845.258V67.9531H844.258V68.9531ZM844.258 87V88H845.258V87H844.258ZM706.211 87H705.211V88H706.211V87ZM706.211 2.15625V1.15625H705.211V2.15625H706.211ZM728.477 87V88H729.477V87H728.477ZM728.477 58.7578V57.7578H727.477V58.7578H728.477ZM737.207 58.7578L738.089 58.2873L737.807 57.7578H737.207V58.7578ZM752.266 87L751.383 87.4705L751.666 88H752.266V87ZM776.523 87V88H778.207L777.401 86.5214L776.523 87ZM759.18 55.1836L758.751 54.2801L757.795 54.7334L758.302 55.6622L759.18 55.1836ZM728.477 41.2969H727.477V42.2969H728.477V41.2969ZM728.477 19.9688V18.9688H727.477V19.9688H728.477ZM737.148 19.9688L737.155 18.9688H737.148V19.9688ZM750.391 30.8672L749.391 30.8594L749.391 30.8672L749.391 30.8751L750.391 30.8672ZM611.055 87L610.106 86.6842L609.668 88H611.055V87ZM635.195 87V88H635.937L636.152 87.2898L635.195 87ZM639.297 2.15625V1.15625H638.576L638.348 1.84042L639.297 2.15625ZM669.648 2.15625L670.598 1.8416L670.37 1.15625H669.648V2.15625ZM697.773 87V88H699.158L698.723 86.6853L697.773 87ZM673.75 87L672.794 87.2929L673.01 88H673.75V87ZM668.652 70.3594L669.608 70.0665L669.392 69.3594H668.652V70.3594ZM640.234 70.3594V69.3594H639.492L639.277 70.0696L640.234 70.3594ZM663.496 53.4844V54.4844H664.849L664.452 53.1913L663.496 53.4844ZM645.391 53.4844L644.434 53.1931L644.041 54.4844H645.391V53.4844ZM654.766 25.0078L655.722 24.7147L655.505 24.0078H654.766V25.0078ZM654.062 25.0078V24.0078H653.322L653.106 24.7165L654.062 25.0078ZM518.711 87L517.752 87.2822L517.963 88H518.711V87ZM493.75 2.15625V1.15625H492.413L492.791 2.43849L493.75 2.15625ZM540.039 87V88H540.782L540.996 87.289L540.039 87ZM554.688 38.4844V37.4844H553.945L553.73 38.1953L554.688 38.4844ZM555.391 38.4844L556.348 38.1953L556.133 37.4844H555.391V38.4844ZM570.039 87L569.082 87.289L569.296 88H570.039V87ZM591.484 87V88H592.233L592.444 87.2822L591.484 87ZM616.445 2.15625L617.405 2.43849L617.782 1.15625H616.445V2.15625ZM591.602 2.15625V1.15625H590.801L590.626 1.9375L591.602 2.15625ZM579.648 55.4766V56.4766H580.449L580.624 55.6953L579.648 55.4766ZM578.945 55.4766L577.978 55.7316L578.175 56.4766H578.945V55.4766ZM564.883 2.15625L565.85 1.90123L565.653 1.15625H564.883V2.15625ZM545.195 2.15625V1.15625H544.424L544.228 1.90218L545.195 2.15625ZM531.25 55.2422V56.2422H532.021L532.217 55.4963L531.25 55.2422ZM530.547 55.2422L529.571 55.4619L529.747 56.2422H530.547V55.2422ZM518.594 2.15625L519.569 1.93658L519.394 1.15625H518.594V2.15625ZM415.352 2.15625V1.15625H414.352V2.15625H415.352ZM415.352 20.2031H414.352V21.2031H415.352V20.2031ZM488.477 2.15625H489.477V1.15625H488.477V2.15625ZM488.477 20.2031V21.2031H489.477V20.2031H488.477ZM462.93 20.2031V19.2031H461.93V20.2031H462.93ZM462.93 87V88H463.93V87H462.93ZM440.898 87H439.898V88H440.898V87ZM440.898 20.2031H441.898V19.2031H440.898V20.2031ZM349.727 87H348.727V88H349.727V87ZM349.727 2.15625V1.15625H348.727V2.15625H349.727ZM371.992 87V88H372.992V87H371.992ZM371.992 53.6016V52.6016H370.992V53.6016H371.992ZM405.156 53.6016V54.6016H406.156V53.6016H405.156ZM405.156 35.5547H406.156V34.5547H405.156V35.5547ZM371.992 35.5547H370.992V36.5547H371.992V35.5547ZM371.992 20.2031V19.2031H370.992V20.2031H371.992ZM408.906 20.2031V21.2031H409.906V20.2031H408.906ZM408.906 2.15625H409.906V1.15625H408.906V2.15625ZM0.742188 87H-0.257812V88H0.742188V87ZM0.742188 2.15625V1.15625H-0.257812V2.15625H0.742188ZM57.5781 87V88H58.5781V87H57.5781ZM57.5781 68.9531H58.5781V67.9531H57.5781V68.9531ZM23.0078 68.9531H22.0078V69.9531H23.0078V68.9531ZM23.0078 2.15625H24.0078V1.15625H23.0078V2.15625ZM104.922 21.4375C108.489 21.4375 111.414 22.2797 113.607 23.782C115.79 25.277 117.308 27.4663 118.014 30.2894L119.955 29.8043C119.137 26.5337 117.345 23.9184 114.737 22.132C112.141 20.3531 108.797 19.4375 104.922 19.4375V21.4375ZM87.1719 44.4609C87.1719 37.0084 88.8715 31.2484 91.8966 27.3737C94.8956 23.5325 99.2788 21.4375 104.922 21.4375V19.4375C98.7291 19.4375 93.7372 21.7663 90.3202 26.1429C86.9293 30.486 85.1719 36.7377 85.1719 44.4609H87.1719ZM104.809 67.7188C98.9878 67.6908 94.6401 65.5519 91.7161 61.6783C88.7607 57.763 87.1719 51.9576 87.1719 44.4609H85.1719C85.1719 52.1987 86.8057 58.4928 90.1198 62.8832C93.4654 67.3153 98.434 69.6881 104.8 69.7187L104.809 67.7188ZM119.977 55.8132C119.922 59.4918 118.616 62.4045 116.166 64.4242C113.691 66.4643 109.93 67.6903 104.799 67.7188L104.81 69.7187C110.226 69.6886 114.493 68.3951 117.438 65.9674C120.408 63.5194 121.914 60.016 121.976 55.843L119.977 55.8132ZM105.273 56.8281H120.977V54.8281H105.273V56.8281ZM104.273 39.8906V55.8281H106.273V39.8906H104.273ZM142.539 38.8906H105.273V40.8906H142.539V38.8906ZM143.539 51.4922V39.8906H141.539V51.4922H143.539ZM104.57 89.1719C115.847 89.1719 125.6 85.7091 132.543 79.2198C139.495 72.7224 143.539 63.2746 143.539 51.4922H141.539C141.539 62.7958 137.673 71.6878 131.178 77.7587C124.673 83.8378 115.442 87.1719 104.57 87.1719V89.1719ZM62.2031 44.6975C62.2329 58.353 66.491 69.4875 73.9612 77.2141C81.4341 84.9434 92.0346 89.1719 104.57 89.1719V87.1719C92.4966 87.1719 82.4428 83.1094 75.3991 75.824C68.3528 68.5359 64.232 57.9322 64.2031 44.6931L62.2031 44.6975ZM104.453 -0.015625C92.7942 -0.015625 82.2316 4.0233 74.574 11.6734C66.9124 19.3274 62.2329 30.5218 62.2031 44.6932L64.2031 44.6974C64.2319 30.9782 68.7516 20.3171 75.9875 13.0883C83.2273 5.8556 93.2605 1.98438 104.453 1.98438V-0.015625ZM142.596 29.9372C140.652 12.3255 124.763 -0.015625 104.453 -0.015625V1.98438C123.987 1.98438 138.801 13.7839 140.608 30.1566L142.596 29.9372ZM118.984 31.0469H141.602V29.0469H118.984V31.0469ZM226.504 28.3241C226.253 25.2717 225.103 22.7202 222.894 20.9592C220.705 19.215 217.609 18.3525 213.664 18.3828L213.68 20.3828C217.352 20.3545 219.939 21.1619 221.647 22.5232C223.334 23.8677 224.294 25.8572 224.511 28.4884L226.504 28.3241ZM246.953 27.4062H225.508V29.4062H246.953V27.4062ZM213.672 1.98438C223.665 1.98438 231.711 4.67678 237.253 9.28962C242.779 13.8885 245.897 20.4593 245.953 28.4134L247.953 28.3991C247.893 19.8884 244.535 12.7482 238.533 7.75237C232.547 2.77049 224.01 -0.015625 213.672 -0.015625V1.98438ZM180.687 27.813C180.631 20.1122 183.992 13.6911 189.781 9.16995C195.588 4.63393 203.882 1.98438 213.672 1.98438V-0.015625C203.54 -0.015625 194.783 2.72545 188.55 7.59372C182.297 12.4768 178.627 19.4737 178.688 27.8276L180.687 27.813ZM203.925 50.6327C196.55 49.0129 190.723 46.4038 186.759 42.6776C182.826 38.9811 180.659 34.1245 180.687 27.8248L178.688 27.8158C178.657 34.6411 181.031 40.0385 185.389 44.1349C189.716 48.2016 195.93 50.9246 203.496 52.5861L203.925 50.6327ZM212.48 52.5076L203.925 50.6326L203.497 52.5862L212.052 54.4612L212.48 52.5076ZM226.273 62.0248C226.257 60.8507 225.99 59.7589 225.407 58.7576C224.828 57.7617 223.967 56.908 222.838 56.1593C220.609 54.681 217.216 53.5373 212.478 52.5072L212.053 54.4616C216.749 55.4823 219.831 56.565 221.733 57.8261C222.669 58.447 223.287 59.0911 223.678 59.7633C224.066 60.4301 224.261 61.1766 224.274 62.0533L226.273 62.0248ZM213.438 70.6562C217.392 70.6562 220.556 69.8589 222.77 68.3692C225.022 66.8542 226.24 64.6511 226.273 62.052L224.274 62.0261C224.249 63.9387 223.386 65.5442 221.654 66.7099C219.883 67.9008 217.159 68.6562 213.438 68.6562V70.6562ZM197.79 57.6303C197.976 61.8223 199.528 65.1275 202.299 67.3654C205.046 69.5835 208.87 70.6562 213.438 70.6562V68.6562C209.157 68.6562 205.833 67.6489 203.556 65.8094C201.302 63.9897 199.953 61.2598 199.788 57.5415L197.79 57.6303ZM177.461 58.5859H198.789V56.5859H177.461V58.5859ZM213.792 87.0547C202.958 87.0257 194.173 84.6625 188.093 79.858C182.052 75.0835 178.547 67.7908 178.461 57.5775L176.461 57.5943C176.551 68.299 180.253 76.2114 186.853 81.4272C193.415 86.6129 202.706 89.0251 213.786 89.0547L213.792 87.0547ZM247.125 62.032C247.068 70.0675 243.973 76.2519 238.355 80.4651C232.699 84.7074 224.383 87.0257 213.786 87.0547L213.792 89.0547C224.64 89.025 233.434 86.6559 239.555 82.0651C245.715 77.4454 249.064 70.6513 249.125 62.0461L247.125 62.032ZM221.433 37.236C230.436 39.1467 236.822 42.2627 240.965 46.4058C245.084 50.5244 247.068 55.7398 247.125 62.048L249.125 62.0301C249.064 55.2719 246.918 49.5302 242.379 44.9916C237.865 40.4775 231.068 37.2361 221.848 35.2796L221.433 37.236ZM214.382 35.591L221.413 37.2317L221.868 35.284L214.837 33.6433L214.382 35.591ZM201.891 26.1397C201.788 28.7306 202.95 30.7353 205.15 32.2541C207.283 33.7268 210.42 34.7695 214.406 35.5963L214.812 33.638C210.889 32.8243 208.078 31.8454 206.286 30.6082C204.56 29.417 203.818 28.0233 203.89 26.2197L201.891 26.1397ZM213.68 18.3828C209.902 18.3526 206.993 19.0891 204.991 20.4625C202.949 21.863 201.925 23.8797 201.891 26.1648L203.891 26.1946C203.915 24.5539 204.619 23.1428 206.122 22.1117C207.665 21.0535 210.117 20.3544 213.664 20.3828L213.68 18.3828ZM297.812 89.1719C309.492 89.1719 320.014 85.2555 327.618 77.674C335.226 70.0883 339.828 58.9194 339.828 44.5781H337.828C337.828 58.479 333.378 69.107 326.206 76.2577C319.029 83.4125 309.043 87.1719 297.812 87.1719V89.1719ZM255.68 44.5802C255.709 58.8318 260.282 69.9994 267.881 77.6067C275.478 85.2108 286.014 89.1719 297.812 89.1719V87.1719C286.466 87.1719 276.465 83.3693 269.296 76.1931C262.13 69.0202 257.709 58.3908 257.68 44.576L255.68 44.5802ZM297.812 -0.015625C286.017 -0.015625 275.481 3.89955 267.882 11.4826C260.281 19.0692 255.709 30.238 255.68 44.5761L257.68 44.5802C257.709 30.6761 262.131 20.048 269.295 12.8982C276.463 5.74498 286.463 1.98438 297.812 1.98438V-0.015625ZM339.828 44.5781C339.828 30.2368 335.226 19.0679 327.618 11.4823C320.014 3.90079 309.492 -0.015625 297.812 -0.015625V1.98438C309.043 1.98438 319.029 5.74374 326.206 12.8986C333.378 20.0493 337.828 30.6773 337.828 44.5781H339.828ZM297.817 67.7188C292.225 67.6908 287.997 65.6658 285.134 61.8691C282.239 58.0293 280.648 52.2549 280.648 44.5781H278.648C278.648 52.4873 280.281 58.7539 283.537 63.0733C286.827 67.4357 291.681 69.6881 297.808 69.7187L297.817 67.7188ZM314.859 44.5819C314.888 52.256 313.298 58.0303 310.409 61.87C307.553 65.6678 303.338 67.6908 297.807 67.7188L297.818 69.7187C303.888 69.6881 308.727 67.4338 312.008 63.0723C315.257 58.7529 316.889 52.4862 316.859 44.5744L314.859 44.5819ZM297.812 21.4375C303.342 21.4375 307.554 23.4462 310.409 27.2423C313.297 31.0815 314.888 36.8699 314.859 44.5744L316.859 44.5819C316.889 36.6418 315.257 30.3599 312.008 26.04C308.726 21.6769 303.885 19.4375 297.812 19.4375V21.4375ZM280.648 44.5781C280.648 36.8711 282.239 31.0825 285.134 27.2432C287.996 23.4481 292.222 21.4375 297.812 21.4375V19.4375C291.684 19.4375 286.828 21.6749 283.537 26.0391C280.28 30.3589 278.648 36.6406 278.648 44.5781H280.648ZM1307.73 89.1719C1319.41 89.1719 1329.94 85.2555 1337.54 77.674C1345.15 70.0883 1349.75 58.9194 1349.75 44.5781H1347.75C1347.75 58.479 1343.3 69.107 1336.13 76.2577C1328.95 83.4125 1318.96 87.1719 1307.73 87.1719V89.1719ZM1265.6 44.5802C1265.63 58.8318 1270.2 69.9994 1277.8 77.6067C1285.4 85.2108 1295.94 89.1719 1307.73 89.1719V87.1719C1296.39 87.1719 1286.39 83.3693 1279.22 76.1931C1272.05 69.0202 1267.63 58.3908 1267.6 44.576L1265.6 44.5802ZM1307.73 -0.015625C1295.94 -0.015625 1285.4 3.89955 1277.8 11.4826C1270.2 19.0692 1265.63 30.238 1265.6 44.5761L1267.6 44.5802C1267.63 30.6761 1272.05 20.048 1279.22 12.8982C1286.38 5.74498 1296.38 1.98438 1307.73 1.98438V-0.015625ZM1349.75 44.5781C1349.75 30.2368 1345.15 19.0679 1337.54 11.4823C1329.94 3.90079 1319.41 -0.015625 1307.73 -0.015625V1.98438C1318.96 1.98438 1328.95 5.74374 1336.13 12.8986C1343.3 20.0493 1347.75 30.6773 1347.75 44.5781H1349.75ZM1307.74 67.7188C1302.15 67.6908 1297.92 65.6658 1295.06 61.8691C1292.16 58.0293 1290.57 52.2549 1290.57 44.5781H1288.57C1288.57 52.4873 1290.2 58.7539 1293.46 63.0733C1296.75 67.4357 1301.6 69.6881 1307.73 69.7187L1307.74 67.7188ZM1324.78 44.5819C1324.81 52.256 1323.22 58.0303 1320.33 61.87C1317.47 65.6678 1313.26 67.6908 1307.73 67.7188L1307.74 69.7187C1313.81 69.6881 1318.65 67.4338 1321.93 63.0723C1325.18 58.7529 1326.81 52.4862 1326.78 44.5744L1324.78 44.5819ZM1307.73 21.4375C1313.26 21.4375 1317.48 23.4462 1320.33 27.2423C1323.22 31.0815 1324.81 36.8699 1324.78 44.5744L1326.78 44.5819C1326.81 36.6418 1325.18 30.3599 1321.93 26.04C1318.65 21.6769 1313.81 19.4375 1307.73 19.4375V21.4375ZM1290.57 44.5781C1290.57 36.8711 1292.16 31.0825 1295.06 27.2432C1297.92 23.4481 1302.14 21.4375 1307.73 21.4375V19.4375C1301.61 19.4375 1296.75 21.6749 1293.46 26.0391C1290.2 30.3589 1288.57 36.6406 1288.57 44.5781H1290.57ZM1610.95 70.9453V87H1612.95V70.9453H1610.95ZM1642.83 43.6953L1611.31 70.1797L1612.6 71.711L1644.12 45.2266L1642.83 43.6953ZM1652.91 28.8655C1652.85 34.5045 1649.32 38.2151 1642.83 43.6973L1644.12 45.2246C1650.53 39.8084 1654.84 35.5502 1654.91 28.8845L1652.91 28.8655ZM1642.66 19.2109C1645.7 19.2109 1648.24 20.1555 1650.02 21.795C1651.79 23.4267 1652.88 25.8194 1652.91 28.8838L1654.91 28.8662C1654.87 25.3095 1653.59 22.3702 1651.38 20.3252C1649.17 18.2878 1646.11 17.2109 1642.66 17.2109V19.2109ZM1632.64 29.57C1632.61 26.181 1633.66 23.6156 1635.37 21.899C1637.09 20.1799 1639.59 19.2109 1642.66 19.2109V17.2109C1639.16 17.2109 1636.12 18.3221 1633.96 20.4848C1631.79 22.65 1630.61 25.7682 1630.64 29.5863L1632.64 29.57ZM1610.43 30.5781H1631.64V28.5781H1610.43V30.5781ZM1642.66 -0.015625C1632.72 -0.015625 1624.39 2.7601 1618.54 7.8939C1612.68 13.041 1609.4 20.4765 1609.43 29.5814L1611.43 29.5748C1611.4 20.9845 1614.48 14.123 1619.86 9.39711C1625.26 4.65786 1633.08 1.98438 1642.66 1.98438V-0.015625ZM1676.59 27C1676.59 18.878 1673.24 12.084 1667.28 7.34277C1661.34 2.61858 1652.87 -0.015625 1642.66 -0.015625V1.98438C1652.54 1.98438 1660.54 4.53572 1666.04 8.90821C1671.51 13.2637 1674.59 19.4774 1674.59 27H1676.59ZM1652.21 61.9841C1671.38 45.8593 1676.59 37.3343 1676.59 27H1674.59C1674.59 36.3532 1670.07 44.3516 1650.92 60.4534L1652.21 61.9841ZM1643.66 69.3586L1652.22 61.9758L1650.91 60.4617L1642.35 67.8445L1643.66 69.3586ZM1644.01 69.0703V68.6016H1642.01V69.0703H1644.01ZM1676.52 68.0703H1643.01V70.0703H1676.52V68.0703ZM1677.52 87V69.0703H1675.52V87H1677.52ZM1611.95 88H1676.52V86H1611.95V88ZM1723.52 87.1719C1712.33 87.1719 1703.39 83.325 1697.21 76.1592C1691.02 68.9738 1687.51 58.334 1687.48 44.576L1685.48 44.5802C1685.51 58.6543 1689.1 69.8114 1695.7 77.4648C1702.31 85.1379 1711.85 89.1719 1723.52 89.1719V87.1719ZM1759.55 44.5781C1759.55 58.3942 1756.04 69.0323 1749.84 76.202C1743.66 83.3526 1734.7 87.1719 1723.52 87.1719V89.1719C1735.18 89.1719 1744.74 85.1689 1751.36 77.5099C1757.96 69.87 1761.55 58.7112 1761.55 44.5781H1759.55ZM1723.52 1.98438C1734.7 1.98438 1743.66 5.84535 1749.84 13.0191C1756.04 20.2119 1759.55 30.8513 1759.55 44.5781H1761.55C1761.55 30.5315 1757.96 19.3741 1751.36 11.7133C1744.74 4.03356 1735.19 -0.015625 1723.52 -0.015625V1.98438ZM1687.48 44.5802C1687.51 30.7925 1691.02 20.1531 1697.21 12.9755C1703.38 5.81735 1712.33 1.98438 1723.52 1.98438V-0.015625C1711.85 -0.015625 1702.31 4.00297 1695.7 11.6691C1689.1 19.3156 1685.51 30.4731 1685.48 44.576L1687.48 44.5802ZM1708.57 44.5749C1708.54 53.6504 1709.98 60.2609 1712.58 64.644C1715.22 69.0884 1719.04 71.2102 1723.51 71.2422L1723.52 69.2422C1719.79 69.2156 1716.6 67.4995 1714.3 63.6235C1711.97 59.6863 1710.54 53.4941 1710.57 44.5814L1708.57 44.5749ZM1723.51 17.9141C1719.02 17.9462 1715.25 20.1745 1712.65 24.6514C1710.07 29.0711 1708.63 35.6734 1708.57 44.5715L1710.57 44.5848C1710.63 35.8461 1712.05 29.6457 1714.38 25.6572C1716.66 21.7259 1719.81 19.9405 1723.52 19.914L1723.51 17.9141ZM1738.46 44.5748C1738.43 35.6748 1736.99 29.0711 1734.41 24.6502C1731.79 20.1732 1728.01 17.9462 1723.52 17.9141L1723.51 19.914C1727.22 19.9406 1730.38 21.7272 1732.68 25.6584C1735.01 29.6457 1736.43 35.8447 1736.46 44.5814L1738.46 44.5748ZM1723.52 71.2422C1727.99 71.2102 1731.81 69.0884 1734.45 64.644C1737.05 60.2609 1738.49 53.6504 1738.46 44.5749L1736.46 44.5814C1736.49 53.4941 1735.06 59.6863 1732.73 63.6235C1730.43 67.4995 1727.24 69.2156 1723.51 69.2422L1723.52 71.2422ZM1770.45 70.9453V87H1772.45V70.9453H1770.45ZM1802.33 43.6953L1770.8 70.1797L1772.09 71.711L1803.61 45.2266L1802.33 43.6953ZM1812.4 28.8655C1812.35 34.5045 1808.81 38.2151 1802.32 43.6973L1803.61 45.2246C1810.02 39.8084 1814.34 35.5502 1814.4 28.8845L1812.4 28.8655ZM1802.15 19.2109C1805.19 19.2109 1807.74 20.1555 1809.51 21.795C1811.28 23.4267 1812.37 25.8194 1812.4 28.8838L1814.4 28.8662C1814.37 25.3095 1813.08 22.3702 1810.87 20.3252C1808.66 18.2878 1805.61 17.2109 1802.15 17.2109V19.2109ZM1792.13 29.57C1792.11 26.181 1793.15 23.6156 1794.87 21.899C1796.58 20.1799 1799.08 19.2109 1802.15 19.2109V17.2109C1798.65 17.2109 1795.61 18.3221 1793.45 20.4848C1791.29 22.65 1790.1 25.7682 1790.13 29.5863L1792.13 29.57ZM1769.92 30.5781H1791.13V28.5781H1769.92V30.5781ZM1802.15 -0.015625C1792.21 -0.015625 1783.89 2.7601 1778.04 7.8939C1772.17 13.041 1768.89 20.4765 1768.92 29.5814L1770.92 29.5748C1770.89 20.9845 1773.97 14.123 1779.36 9.39711C1784.76 4.65786 1792.57 1.98438 1802.15 1.98438V-0.015625ZM1836.08 27C1836.08 18.878 1832.74 12.084 1826.77 7.34277C1820.83 2.61858 1812.36 -0.015625 1802.15 -0.015625V1.98438C1812.04 1.98438 1820.03 4.53572 1825.53 8.90821C1831.01 13.2637 1834.08 19.4774 1834.08 27H1836.08ZM1811.7 61.9841C1830.87 45.8593 1836.08 37.3343 1836.08 27H1834.08C1834.08 36.3532 1829.56 44.3516 1810.41 60.4534L1811.7 61.9841ZM1803.15 69.3586L1811.71 61.9758L1810.4 60.4617L1801.85 67.8445L1803.15 69.3586ZM1803.5 69.0703V68.6016H1801.5V69.0703H1803.5ZM1836.02 68.0703H1802.5V70.0703H1836.02V68.0703ZM1837.02 87V69.0703H1835.02V87H1837.02ZM1771.45 88H1836.02V86H1771.45V88ZM1842.87 56.1797V73.5234H1844.87V56.1797H1842.87ZM1877.36 1.61985L1843.02 55.6433L1844.71 56.7161L1879.05 2.69265L1877.36 1.61985ZM1906.45 1.15625H1878.2V3.15625H1906.45V1.15625ZM1907.45 56.0625V2.15625H1905.45V56.0625H1907.45ZM1916.29 55.0625H1906.45V57.0625H1916.29V55.0625ZM1917.29 73.5234V56.0625H1915.29V73.5234H1917.29ZM1906.45 74.5234H1916.29V72.5234H1906.45V74.5234ZM1907.45 87V73.5234H1905.45V87H1907.45ZM1885.12 88H1906.45V86H1885.12V88ZM1884.12 73.5234V87H1886.12V73.5234H1884.12ZM1843.87 74.5234H1885.12V72.5234H1843.87V74.5234ZM1885.59 55.0625H1865.9V57.0625H1885.59V55.0625ZM1884.59 25.3594V56.0625H1886.59V25.3594H1884.59ZM1884.88 26.3594H1885.59V24.3594H1884.88V26.3594ZM1866.74 56.0098L1885.73 25.8926L1884.04 24.8261L1865.05 54.9433L1866.74 56.0098ZM1866.9 56.0625V55.4766H1864.9V56.0625H1866.9ZM1509.24 87V2.15625H1507.24V87H1509.24ZM1530.51 86H1508.24V88H1530.51V86ZM1529.51 58.7578V87H1531.51V58.7578H1529.51ZM1539.24 57.7578H1530.51V59.7578H1539.24V57.7578ZM1555.18 86.5295L1540.12 58.2873L1538.36 59.2283L1553.41 87.4705L1555.18 86.5295ZM1578.55 86H1554.3V88H1578.55V86ZM1560.33 55.6622L1577.68 87.4786L1579.43 86.5214L1562.09 54.705L1560.33 55.6622ZM1574.74 30.8672C1574.74 42.2238 1569.55 50.1198 1560.78 54.2801L1561.64 56.0871C1571.15 51.5755 1576.74 42.9481 1576.74 30.8672H1574.74ZM1544.34 3.15625C1553.64 3.15625 1561.24 5.79787 1566.49 10.531C1571.73 15.2528 1574.74 22.1459 1574.74 30.8672H1576.74C1576.74 21.6588 1573.54 14.1964 1567.83 9.04519C1562.12 3.90525 1554.01 1.15625 1544.34 1.15625V3.15625ZM1508.24 3.15625H1544.34V1.15625H1508.24V3.15625ZM1530.51 42.2969H1539.18V40.2969H1530.51V42.2969ZM1529.51 19.9688V41.2969H1531.51V19.9688H1529.51ZM1539.18 18.9688H1530.51V20.9688H1539.18V18.9688ZM1553.42 30.875C1553.45 26.8861 1552.15 23.8514 1549.58 21.8404C1547.06 19.8665 1543.48 18.9988 1539.19 18.9688L1539.17 20.9687C1543.26 20.9973 1546.33 21.8288 1548.35 23.4145C1550.32 24.9631 1551.45 27.3483 1551.42 30.8594L1553.42 30.875ZM1539.18 42.2969C1543.46 42.2969 1547.04 41.5244 1549.56 39.6537C1552.14 37.7391 1553.45 34.7969 1553.42 30.8593L1551.42 30.8751C1551.45 34.3203 1550.33 36.5929 1548.37 38.0475C1546.35 39.5459 1543.28 40.2969 1539.18 40.2969V42.2969ZM1434.94 2.15625V87H1436.94V2.15625H1434.94ZM1496.52 1.15625H1435.94V3.15625H1496.52V1.15625ZM1497.52 20.2031V2.15625H1495.52V20.2031H1497.52ZM1458.2 21.2031H1496.52V19.2031H1458.2V21.2031ZM1459.2 35.5547V20.2031H1457.2V35.5547H1459.2ZM1493.36 34.5547H1458.2V36.5547H1493.36V34.5547ZM1494.36 53.6016V35.5547H1492.36V53.6016H1494.36ZM1458.2 54.6016H1493.36V52.6016H1458.2V54.6016ZM1459.2 68.9531V53.6016H1457.2V68.9531H1459.2ZM1496.41 67.9531H1458.2V69.9531H1496.41V67.9531ZM1497.41 87V68.9531H1495.41V87H1497.41ZM1435.94 88H1496.41V86H1435.94V88ZM1360.65 87V2.15625H1358.65V87H1360.65ZM1381.91 86H1359.65V88H1381.91V86ZM1380.91 61.4531V87H1382.91V61.4531H1380.91ZM1395.04 60.4531H1381.91V62.4531H1395.04V60.4531ZM1426.15 31.9219C1426.15 40.7576 1423.05 47.8744 1417.67 52.7823C1412.28 57.699 1404.52 60.4818 1395.04 60.4531L1395.04 62.4531C1404.9 62.483 1413.19 59.5822 1419.02 54.2597C1424.86 48.9283 1428.15 41.2502 1428.15 31.9219H1426.15ZM1395.74 3.15625C1405.02 3.15625 1412.61 6.06105 1417.88 11.0622C1423.13 16.059 1426.15 23.2268 1426.15 31.9219H1428.15C1428.15 22.7458 1424.95 15.0308 1419.25 9.6126C1413.56 4.19872 1405.44 1.15625 1395.74 1.15625V3.15625ZM1359.65 3.15625H1395.74V1.15625H1359.65V3.15625ZM1381.91 45.1094H1390.59V43.1094H1381.91V45.1094ZM1380.91 19.9688V44.1094H1382.91V19.9688H1380.91ZM1390.59 18.9688H1381.91V20.9688H1390.59V18.9688ZM1404.83 31.9298C1404.86 28.0036 1403.56 24.7387 1401.04 22.4578C1398.54 20.19 1394.95 18.9993 1390.59 18.9688L1390.58 20.9687C1394.6 20.9968 1397.66 22.0912 1399.7 23.9396C1401.72 25.775 1402.86 28.4573 1402.83 31.9139L1404.83 31.9298ZM1390.59 45.1094C1394.96 45.0788 1398.55 43.8388 1401.05 41.5168C1403.56 39.185 1404.86 35.8658 1404.83 31.914L1402.83 31.9297C1402.86 35.4193 1401.72 38.1646 1399.69 40.0516C1397.65 41.9483 1394.59 43.0814 1390.58 43.1094L1390.59 45.1094ZM1205.14 87V2.15625H1203.14V87H1205.14ZM1260.98 86H1204.14V88H1260.98V86ZM1259.98 68.9531V87H1261.98V68.9531H1259.98ZM1226.41 69.9531H1260.98V67.9531H1226.41V69.9531ZM1225.41 2.15625V68.9531H1227.41V2.15625H1225.41ZM1204.14 3.15625H1226.41V1.15625H1204.14V3.15625ZM1130.84 2.15625V87H1132.84V2.15625H1130.84ZM1192.42 1.15625H1131.84V3.15625H1192.42V1.15625ZM1193.42 20.2031V2.15625H1191.42V20.2031H1193.42ZM1154.1 21.2031H1192.42V19.2031H1154.1V21.2031ZM1155.1 35.5547V20.2031H1153.1V35.5547H1155.1ZM1189.26 34.5547H1154.1V36.5547H1189.26V34.5547ZM1190.26 53.6016V35.5547H1188.26V53.6016H1190.26ZM1154.1 54.6016H1189.26V52.6016H1154.1V54.6016ZM1155.1 68.9531V53.6016H1153.1V68.9531H1155.1ZM1192.3 67.9531H1154.1V69.9531H1192.3V67.9531ZM1193.3 87V68.9531H1191.3V87H1193.3ZM1131.84 88H1192.3V86H1131.84V88ZM1060.92 2.43882L1078.73 62.9076L1080.65 62.3424L1062.83 1.87368L1060.92 2.43882ZM1036.68 3.15625H1061.88V1.15625H1036.68V3.15625ZM1065.87 86.6842L1037.63 1.84042L1035.73 2.47208L1063.97 87.3158L1065.87 86.6842ZM1095.27 86H1064.92V88H1095.27V86ZM1122.45 1.8416L1094.32 86.6853L1096.22 87.3147L1124.35 2.4709L1122.45 1.8416ZM1098.2 3.15625H1123.4V1.15625H1098.2V3.15625ZM1081.35 62.9076L1099.16 2.43882L1097.24 1.87368L1079.43 62.3424L1081.35 62.9076ZM1079.69 63.625H1080.39V61.625H1079.69V63.625ZM966.539 2.15625V87H968.539V2.15625H966.539ZM1028.12 1.15625H967.539V3.15625H1028.12V1.15625ZM1029.12 20.2031V2.15625H1027.12V20.2031H1029.12ZM989.805 21.2031H1028.12V19.2031H989.805V21.2031ZM990.805 35.5547V20.2031H988.805V35.5547H990.805ZM1024.96 34.5547H989.805V36.5547H1024.96V34.5547ZM1025.96 53.6016V35.5547H1023.96V53.6016H1025.96ZM989.805 54.6016H1024.96V52.6016H989.805V54.6016ZM990.805 68.9531V53.6016H988.805V68.9531H990.805ZM1028.01 67.9531H989.805V69.9531H1028.01V67.9531ZM1029.01 87V68.9531H1027.01V87H1029.01ZM967.539 88H1028.01V86H967.539V88ZM914.453 86H882.227V88H914.453V86ZM955.641 44.5781C955.641 57.6132 951.636 67.9431 944.552 75.0129C937.468 82.0832 927.196 86 914.453 86V88C927.609 88 938.431 83.948 945.965 76.4285C953.5 68.9084 957.641 58.0275 957.641 44.5781H955.641ZM914.219 3.15625C927.082 3.15625 937.412 7.06041 944.525 14.1232C951.636 21.1848 955.641 31.5134 955.641 44.5781H957.641C957.641 31.0999 953.501 20.2176 945.934 12.704C938.369 5.19154 927.488 1.15625 914.219 1.15625V3.15625ZM882.227 3.15625H914.219V1.15625H882.227V3.15625ZM883.227 87V2.15625H881.227V87H883.227ZM904.492 69.0156H913.633V67.0156H904.492V69.0156ZM903.492 21.1406V68.0156H905.492V21.1406H903.492ZM913.047 20.1406H904.492V22.1406H913.047V20.1406ZM935.141 44.5781C935.141 35.508 933.264 29.3272 929.426 25.4337C925.581 21.5338 919.978 20.1406 913.047 20.1406V22.1406C919.768 22.1406 924.712 23.5014 928.001 26.8378C931.297 30.1806 933.141 35.7185 933.141 44.5781H935.141ZM913.633 69.0156C920.283 69.0156 925.739 67.6021 929.507 63.6924C933.263 59.7943 935.141 53.6207 935.141 44.5781H933.141C933.141 53.4066 931.297 58.9518 928.067 62.3046C924.847 65.6459 920.049 67.0156 913.633 67.0156V69.0156ZM782.789 2.15625V87H784.789V2.15625H782.789ZM844.375 1.15625H783.789V3.15625H844.375V1.15625ZM845.375 20.2031V2.15625H843.375V20.2031H845.375ZM806.055 21.2031H844.375V19.2031H806.055V21.2031ZM807.055 35.5547V20.2031H805.055V35.5547H807.055ZM841.211 34.5547H806.055V36.5547H841.211V34.5547ZM842.211 53.6016V35.5547H840.211V53.6016H842.211ZM806.055 54.6016H841.211V52.6016H806.055V54.6016ZM807.055 68.9531V53.6016H805.055V68.9531H807.055ZM844.258 67.9531H806.055V69.9531H844.258V67.9531ZM845.258 87V68.9531H843.258V87H845.258ZM783.789 88H844.258V86H783.789V88ZM707.211 87V2.15625H705.211V87H707.211ZM728.477 86H706.211V88H728.477V86ZM727.477 58.7578V87H729.477V58.7578H727.477ZM737.207 57.7578H728.477V59.7578H737.207V57.7578ZM753.148 86.5295L738.089 58.2873L736.325 59.2283L751.383 87.4705L753.148 86.5295ZM776.523 86H752.266V88H776.523V86ZM758.302 55.6622L775.645 87.4786L777.401 86.5214L760.058 54.705L758.302 55.6622ZM772.711 30.8672C772.711 42.2238 767.521 50.1198 758.751 54.2801L759.608 56.0871C769.119 51.5755 774.711 42.9481 774.711 30.8672H772.711ZM742.305 3.15625C751.613 3.15625 759.205 5.79787 764.458 10.531C769.698 15.2528 772.711 22.1459 772.711 30.8672H774.711C774.711 21.6588 771.513 14.1964 765.796 9.04519C760.092 3.90525 751.981 1.15625 742.305 1.15625V3.15625ZM706.211 3.15625H742.305V1.15625H706.211V3.15625ZM728.477 42.2969H737.148V40.2969H728.477V42.2969ZM727.477 19.9688V41.2969H729.477V19.9688H727.477ZM737.148 18.9688H728.477V20.9688H737.148V18.9688ZM751.391 30.875C751.422 26.8861 750.116 23.8514 747.551 21.8404C745.032 19.8665 741.45 18.9988 737.155 18.9688L737.141 20.9687C741.226 20.9973 744.294 21.8288 746.317 23.4145C748.292 24.9631 749.418 27.3483 749.391 30.8594L751.391 30.875ZM737.148 42.2969C741.428 42.2969 745.008 41.5244 747.529 39.6537C750.11 37.7391 751.422 34.7969 751.391 30.8593L749.391 30.8751C749.418 34.3203 748.298 36.5929 746.338 38.0475C744.318 39.5459 741.248 40.2969 737.148 40.2969V42.2969ZM611.055 88H635.195V86H611.055V88ZM638.348 1.84042L610.106 86.6842L612.004 87.3158L640.246 2.47208L638.348 1.84042ZM669.648 1.15625H639.297V3.15625H669.648V1.15625ZM698.723 86.6853L670.598 1.8416L668.699 2.4709L696.824 87.3147L698.723 86.6853ZM673.75 88H697.773V86H673.75V88ZM667.696 70.6523L672.794 87.2929L674.706 86.7071L669.608 70.0665L667.696 70.6523ZM640.234 71.3594H668.652V69.3594H640.234V71.3594ZM636.152 87.2898L641.191 70.6492L639.277 70.0696L634.238 86.7102L636.152 87.2898ZM663.496 52.4844H645.391V54.4844H663.496V52.4844ZM653.81 25.3009L662.54 53.7775L664.452 53.1913L655.722 24.7147L653.81 25.3009ZM654.062 26.0078H654.766V24.0078H654.062V26.0078ZM646.347 53.7757L655.019 25.2991L653.106 24.7165L644.434 53.1931L646.347 53.7757ZM519.67 86.7178L494.709 1.87401L492.791 2.43849L517.752 87.2822L519.67 86.7178ZM540.039 86H518.711V88H540.039V86ZM553.73 38.1953L539.082 86.711L540.996 87.289L555.645 38.7734L553.73 38.1953ZM555.391 37.4844H554.688V39.4844H555.391V37.4844ZM570.996 86.711L556.348 38.1953L554.433 38.7734L569.082 87.289L570.996 86.711ZM591.484 86H570.039V88H591.484V86ZM615.486 1.87401L590.525 86.7178L592.444 87.2822L617.405 2.43849L615.486 1.87401ZM591.602 3.15625H616.445V1.15625H591.602V3.15625ZM580.624 55.6953L592.577 2.375L590.626 1.9375L578.673 55.2578L580.624 55.6953ZM578.945 56.4766H579.648V54.4766H578.945V56.4766ZM563.916 2.41127L577.978 55.7316L579.912 55.2215L565.85 1.90123L563.916 2.41127ZM545.195 3.15625H564.883V1.15625H545.195V3.15625ZM532.217 55.4963L546.162 2.41032L544.228 1.90218L530.283 54.9881L532.217 55.4963ZM530.547 56.2422H531.25V54.2422H530.547V56.2422ZM517.618 2.37592L529.571 55.4619L531.522 55.0225L519.569 1.93658L517.618 2.37592ZM493.75 3.15625H518.594V1.15625H493.75V3.15625ZM414.352 2.15625V20.2031H416.352V2.15625H414.352ZM488.477 1.15625H415.352V3.15625H488.477V1.15625ZM489.477 20.2031V2.15625H487.477V20.2031H489.477ZM462.93 21.2031H488.477V19.2031H462.93V21.2031ZM463.93 87V20.2031H461.93V87H463.93ZM440.898 88H462.93V86H440.898V88ZM439.898 20.2031V87H441.898V20.2031H439.898ZM415.352 21.2031H440.898V19.2031H415.352V21.2031ZM350.727 87V2.15625H348.727V87H350.727ZM371.992 86H349.727V88H371.992V86ZM370.992 53.6016V87H372.992V53.6016H370.992ZM405.156 52.6016H371.992V54.6016H405.156V52.6016ZM404.156 35.5547V53.6016H406.156V35.5547H404.156ZM371.992 36.5547H405.156V34.5547H371.992V36.5547ZM370.992 20.2031V35.5547H372.992V20.2031H370.992ZM408.906 19.2031H371.992V21.2031H408.906V19.2031ZM407.906 2.15625V20.2031H409.906V2.15625H407.906ZM349.727 3.15625H408.906V1.15625H349.727V3.15625ZM1.74219 87V2.15625H-0.257812V87H1.74219ZM57.5781 86H0.742188V88H57.5781V86ZM56.5781 68.9531V87H58.5781V68.9531H56.5781ZM23.0078 69.9531H57.5781V67.9531H23.0078V69.9531ZM22.0078 2.15625V68.9531H24.0078V2.15625H22.0078ZM0.742188 3.15625H23.0078V1.15625H0.742188V3.15625Z" fill="black" mask="url(#path-1-inside-1_39_240)"/>
</svg>
